<svg 
 xmlns="http://www.w3.org/2000/svg"
 xmlns:xlink="http://www.w3.org/1999/xlink"
 width="8px" height="7px">
<path fill-rule="evenodd"  fill="rgb(255, 255, 255)"
 d="M7.674,1.765 C7.674,1.765 3.751,5.705 3.751,5.705 C3.346,6.109 2.690,6.109 2.286,5.705 C2.254,5.672 2.241,5.630 2.214,5.595 C2.214,5.595 0.285,3.657 0.285,3.657 C-0.093,3.279 -0.093,2.664 0.285,2.286 C0.662,1.907 1.274,1.907 1.652,2.286 C1.652,2.286 2.939,3.580 2.939,3.580 C2.939,3.580 6.209,0.296 6.209,0.296 C6.613,-0.109 7.269,-0.109 7.674,0.296 C8.078,0.702 8.078,1.360 7.674,1.765 Z"/>
</svg>